<?xml version="1.0" encoding="UTF-8" standalone="no"?>
<svg xmlns="http://www.w3.org/2000/svg" version="1.2" baseProfile="tiny" viewBox="0.00 0.00 127.00 118.00">
<g stroke-width="2.00" fill="none" stroke-linecap="butt">
<path stroke="#169429" vector-effect="non-scaling-stroke" d="
  M 118.96 70.49
  Q 116.70 70.88 115.71 70.08"
/>
<path stroke="#169429" vector-effect="non-scaling-stroke" d="
  M 10.74 69.81
  Q 9.73 70.68 7.78 70.67"
/>
<path stroke="#a7eaf6" vector-effect="non-scaling-stroke" d="
  M 63.20 6.23
  Q 64.36 12.21 63.04 17.09"
/>
<path stroke="#bef0f6" vector-effect="non-scaling-stroke" d="
  M 63.04 17.09
  Q 61.23 22.13 62.23 28.88
  Q 62.30 29.35 62.73 29.55
  L 63.28 29.81"
/>
<path stroke="#a7eaf6" vector-effect="non-scaling-stroke" d="
  M 63.28 29.81
  Q 64.22 31.11 63.53 32.88"
/>
<path stroke="#bdd37d" vector-effect="non-scaling-stroke" d="
  M 63.53 32.88
  Q 42.88 34.57 39.17 54.84"
/>
<path stroke="#87d09a" vector-effect="non-scaling-stroke" d="
  M 39.17 54.84
  Q 25.94 53.06 12.53 53.65"
/>
<path stroke="#73ae9c" vector-effect="non-scaling-stroke" d="
  M 114.25 56.21
  Q 100.75 54.43 87.65 56.01"
/>
<path stroke="#e7dc85" vector-effect="non-scaling-stroke" d="
  M 87.65 56.01
  Q 84.66 34.99 63.53 32.88"
/>
<path stroke="#e8f9ff" vector-effect="non-scaling-stroke" d="
  M 63.28 29.81
  C 64.37 29.70 64.94 28.81 64.97 27.72
  Q 65.08 23.27 64.94 18.82
  Q 64.89 17.19 63.04 17.09"
/>
<path stroke="#899723" vector-effect="non-scaling-stroke" d="
  M 87.65 56.01
  Q 76.55 57.63 67.48 60.63"
/>
<path stroke="#c8c329" vector-effect="non-scaling-stroke" d="
  M 67.48 60.63
  Q 53.21 56.56 39.17 54.84"
/>
<path stroke="#539440" vector-effect="non-scaling-stroke" d="
  M 67.48 60.63
  L 60.91 62.82"
/>
<path stroke="#72aa43" vector-effect="non-scaling-stroke" d="
  M 60.91 62.82
  Q 36.88 55.26 12.21 56.62"
/>
<path stroke="#2d7a3d" vector-effect="non-scaling-stroke" d="
  M 114.25 60.06
  C 87.53 59.49 60.67 67.76 40.52 85.86"
/>
<path stroke="#228840" vector-effect="non-scaling-stroke" d="
  M 40.52 85.86
  L 34.10 79.36"
/>
<path stroke="#337e3d" vector-effect="non-scaling-stroke" d="
  M 34.10 79.36
  L 41.24 73.98"
/>
<path stroke="#539440" vector-effect="non-scaling-stroke" d="
  M 41.24 73.98
  L 48.20 69.51"
/>
<path stroke="#337e3d" vector-effect="non-scaling-stroke" d="
  M 48.20 69.51
  L 60.91 62.82"
/>
<path stroke="#72aa43" vector-effect="non-scaling-stroke" d="
  M 48.20 69.51
  Q 30.72 64.19 12.69 62.20"
/>
<path stroke="#2d7a3d" vector-effect="non-scaling-stroke" d="
  M 113.65 64.52
  Q 95.63 67.88 78.70 76.71
  Q 66.04 83.32 55.69 92.88"
/>
<path stroke="#3b9a43" vector-effect="non-scaling-stroke" d="
  M 55.69 92.88
  Q 47.65 91.43 40.52 85.86"
/>
<path stroke="#72aa43" vector-effect="non-scaling-stroke" d="
  M 41.24 73.98
  Q 27.51 67.95 13.02 65.58"
/>
<path stroke="#228840" vector-effect="non-scaling-stroke" d="
  M 112.74 69.00
  C 105.19 65.31 99.56 67.52 95.76 74.24
  Q 94.63 76.24 93.46 78.02"
/>
<path stroke="#2d7a3d" vector-effect="non-scaling-stroke" d="
  M 93.46 78.02
  Q 80.77 84.01 70.00 93.22"
/>
<path stroke="#228840" vector-effect="non-scaling-stroke" d="
  M 70.00 93.22
  Q 63.35 94.55 55.69 92.88"
/>
<path stroke="#419e43" vector-effect="non-scaling-stroke" d="
  M 34.10 79.36
  C 29.52 72.76 26.68 66.26 17.03 69.39
  Q 16.57 69.54 16.30 69.94
  L 15.87 70.59"
/>
<path stroke="#337e3d" vector-effect="non-scaling-stroke" d="
  M 15.87 70.59
  L 14.07 70.21"
/>
<path stroke="#228840" vector-effect="non-scaling-stroke" d="
  M 113.70 70.24
  Q 104.03 71.41 99.99 79.79
  Q 99.57 80.67 99.85 81.24
  A 0.58 0.58 0.0 0 0 100.76 81.42
  Q 105.87 76.98 112.37 75.04
  Q 112.62 74.97 112.68 75.23
  Q 112.71 75.37 112.75 75.51
  A 0.44 0.43 -21.0 0 1 112.51 76.04
  Q 105.73 79.04 100.05 83.81
  A 0.84 0.83 50.7 0 0 99.94 84.97
  C 102.92 88.71 106.14 88.97 110.42 87.46
  Q 112.43 86.75 114.46 86.46"
/>
<path stroke="#228840" vector-effect="non-scaling-stroke" d="
  M 11.28 84.81
  C 16.74 87.80 22.35 91.18 27.16 84.85
  A 0.66 0.66 0.0 0 0 27.06 83.94
  Q 21.40 79.12 14.60 76.10
  A 0.70 0.69 5.6 0 1 14.22 75.64
  Q 14.00 74.74 14.94 75.07
  Q 21.35 77.36 26.34 81.40
  A 0.62 0.61 8.7 0 0 27.30 80.70
  Q 24.22 72.94 15.87 70.59"
/>
<path stroke="#3b9a43" vector-effect="non-scaling-stroke" d="
  M 70.00 93.22
  Q 84.72 90.45 93.46 78.02"
/>
</g>
<path fill="#30a846" d="
  M 112.74 69.00
  L 113.70 70.24
  Q 104.03 71.41 99.99 79.79
  Q 99.57 80.67 99.85 81.24
  A 0.58 0.58 0.0 0 0 100.76 81.42
  Q 105.87 76.98 112.37 75.04
  Q 112.62 74.97 112.68 75.23
  Q 112.71 75.37 112.75 75.51
  A 0.44 0.43 -21.0 0 1 112.51 76.04
  Q 105.73 79.04 100.05 83.81
  A 0.84 0.83 50.7 0 0 99.94 84.97
  C 102.92 88.71 106.14 88.97 110.42 87.46
  Q 112.43 86.75 114.46 86.46
  C 90.31 126.46 33.88 125.77 11.28 84.81
  C 16.74 87.80 22.35 91.18 27.16 84.85
  A 0.66 0.66 0.0 0 0 27.06 83.94
  Q 21.40 79.12 14.60 76.10
  A 0.70 0.69 5.6 0 1 14.22 75.64
  Q 14.00 74.74 14.94 75.07
  Q 21.35 77.36 26.34 81.40
  A 0.62 0.61 8.7 0 0 27.30 80.70
  Q 24.22 72.94 15.87 70.59
  L 16.30 69.94
  Q 16.57 69.54 17.03 69.39
  C 26.68 66.26 29.52 72.76 34.10 79.36
  L 40.52 85.86
  Q 47.65 91.43 55.69 92.88
  Q 63.35 94.55 70.00 93.22
  Q 84.72 90.45 93.46 78.02
  Q 94.63 76.24 95.76 74.24
  C 99.56 67.52 105.19 65.31 112.74 69.00
  Z"
/>
<path fill="#d1f3fe" d="
  M 63.20 6.23
  C 91.30 6.19 113.56 28.54 114.25 56.21
  Q 100.75 54.43 87.65 56.01
  Q 84.66 34.99 63.53 32.88
  Q 64.22 31.11 63.28 29.81
  C 64.37 29.70 64.94 28.81 64.97 27.72
  Q 65.08 23.27 64.94 18.82
  Q 64.89 17.19 63.04 17.09
  Q 64.36 12.21 63.20 6.23
  Z"
/>
<path fill="#fdc50c" d="
  M 63.53 32.88
  Q 84.66 34.99 87.65 56.01
  Q 76.55 57.63 67.48 60.63
  Q 53.21 56.56 39.17 54.84
  Q 42.88 34.57 63.53 32.88
  Z"
/>
<g fill="#14683a">
<path d="
  M 114.25 56.21
  L 114.25 60.06
  C 87.53 59.49 60.67 67.76 40.52 85.86
  L 34.10 79.36
  L 41.24 73.98
  L 48.20 69.51
  L 60.91 62.82
  L 67.48 60.63
  Q 76.55 57.63 87.65 56.01
  Q 100.75 54.43 114.25 56.21
  Z"
/>
<path d="
  M 113.65 64.52
  L 112.74 69.00
  C 105.19 65.31 99.56 67.52 95.76 74.24
  Q 94.63 76.24 93.46 78.02
  Q 80.77 84.01 70.00 93.22
  Q 63.35 94.55 55.69 92.88
  Q 66.04 83.32 78.70 76.71
  Q 95.63 67.88 113.65 64.52
  Z"
/>
<path d="
  M 10.74 69.81
  Q 12.12 70.73 14.07 70.21
  L 15.87 70.59
  Q 24.22 72.94 27.30 80.70
  A 0.62 0.61 8.7 0 1 26.34 81.40
  Q 21.35 77.36 14.94 75.07
  Q 14.00 74.74 14.22 75.64
  A 0.70 0.69 5.6 0 0 14.60 76.10
  Q 21.40 79.12 27.06 83.94
  A 0.66 0.66 0.0 0 1 27.16 84.85
  C 22.35 91.18 16.74 87.80 11.28 84.81
  Q 7.13 77.78 0.00 74.08
  L 0.00 73.36
  L 7.78 70.67
  Q 9.73 70.68 10.74 69.81
  Z"
/>
<path d="
  M 113.70 70.24
  L 115.71 70.08
  Q 116.70 70.88 118.96 70.49
  Q 123.47 71.39 127.00 73.44
  L 127.00 74.30
  C 121.18 76.86 117.97 81.16 114.46 86.46
  Q 112.43 86.75 110.42 87.46
  C 106.14 88.97 102.92 88.71 99.94 84.97
  A 0.84 0.83 50.7 0 1 100.05 83.81
  Q 105.73 79.04 112.51 76.04
  A 0.44 0.43 -21.0 0 0 112.75 75.51
  Q 112.71 75.37 112.68 75.23
  Q 112.62 74.97 112.37 75.04
  Q 105.87 76.98 100.76 81.42
  A 0.58 0.58 0.0 0 1 99.85 81.24
  Q 99.57 80.67 99.99 79.79
  Q 104.03 71.41 113.70 70.24
  Z"
/>
</g>
<path fill="#7ce0ed" d="
  M 63.20 6.23
  Q 64.36 12.21 63.04 17.09
  Q 61.23 22.13 62.23 28.88
  Q 62.30 29.35 62.73 29.55
  L 63.28 29.81
  Q 64.22 31.11 63.53 32.88
  Q 42.88 34.57 39.17 54.84
  Q 25.94 53.06 12.53 53.65
  C 14.73 26.76 36.19 6.63 63.20 6.23
  Z"
/>
<g fill="#468b3f">
<path d="
  M 114.25 60.06
  L 113.65 64.52
  Q 95.63 67.88 78.70 76.71
  Q 66.04 83.32 55.69 92.88
  Q 47.65 91.43 40.52 85.86
  C 60.67 67.76 87.53 59.49 114.25 60.06
  Z"
/>
<path d="
  M 93.46 78.02
  Q 84.72 90.45 70.00 93.22
  Q 80.77 84.01 93.46 78.02
  Z"
/>
</g>
<path fill="#17c018" d="
  M 118.96 70.49
  Q 116.70 70.88 115.71 70.08
  C 129.29 12.54 54.66 -21.82 19.88 25.20
  Q 5.70 44.37 10.74 69.81
  Q 9.73 70.68 7.78 70.67
  Q 2.81 46.73 14.58 27.54
  C 36.78 -8.64 89.03 -9.03 111.74 26.98
  Q 123.87 46.21 118.96 70.49
  Z"
/>
<path fill="#ffffff" d="
  M 63.04 17.09
  Q 64.89 17.19 64.94 18.82
  Q 65.08 23.27 64.97 27.72
  C 64.94 28.81 64.37 29.70 63.28 29.81
  L 62.73 29.55
  Q 62.30 29.35 62.23 28.88
  Q 61.23 22.13 63.04 17.09
  Z"
/>
<g fill="#92c046">
<path d="
  M 39.17 54.84
  Q 53.21 56.56 67.48 60.63
  L 60.91 62.82
  Q 36.88 55.26 12.21 56.62
  L 12.53 53.65
  Q 25.94 53.06 39.17 54.84
  Z"
/>
<path d="
  M 12.69 62.20
  Q 30.72 64.19 48.20 69.51
  L 41.24 73.98
  Q 27.51 67.95 13.02 65.58
  L 12.69 62.20
  Z"
/>
</g>
<g fill="#52943f">
<path d="
  M 12.21 56.62
  Q 36.88 55.26 60.91 62.82
  L 48.20 69.51
  Q 30.72 64.19 12.69 62.20
  L 12.21 56.62
  Z"
/>
<path d="
  M 13.02 65.58
  Q 27.51 67.95 41.24 73.98
  L 34.10 79.36
  C 29.52 72.76 26.68 66.26 17.03 69.39
  Q 16.57 69.54 16.30 69.94
  L 15.87 70.59
  L 14.07 70.21
  L 13.02 65.58
  Z"
/>
</g>
<g fill="#ffffff">
<rect x="-1.53" y="-6.27" transform="translate(41.65,31.05) rotate(-39.2)" width="3.06" height="12.54" rx="1.28"/>
<rect x="-1.53" y="-6.28" transform="translate(85.72,31.00) rotate(39.3)" width="3.06" height="12.56" rx="1.44"/>
<rect x="-6.31" y="-1.52" transform="translate(30.59,46.61) rotate(14.3)" width="12.62" height="3.04" rx="1.42"/>
<rect x="-6.37" y="-1.51" transform="translate(96.76,46.60) rotate(-14.1)" width="12.74" height="3.02" rx="1.45"/>
<path d="
  M 36.4302 89.0450
  A 5.59 5.00 -44.6 0 1 35.9608 96.5301
  A 5.59 5.00 -44.6 0 1 28.4698 96.8950
  A 5.59 5.00 -44.6 0 1 28.9392 89.4099
  A 5.59 5.00 -44.6 0 1 36.4302 89.0450
  Z"
/>
<path d="
  M 89.06 100.44
  C 91.20 100.96 93.55 99.06 92.34 96.85
  A 0.61 0.61 0.0 0 1 92.64 96.00
  L 93.25 95.75
  A 0.64 0.64 0.0 0 1 94.13 96.21
  Q 94.73 99.18 92.81 100.93
  C 87.33 105.94 78.12 93.94 89.11 91.06
  A 1.12 1.12 0.0 0 1 90.51 92.15
  Q 90.48 94.43 88.75 93.03
  A 0.87 0.86 51.8 0 0 87.87 92.92
  C 83.74 94.81 86.48 99.81 89.06 100.44
  Z"
/>
<ellipse cx="0.00" cy="0.00" transform="translate(78.32,93.86) rotate(60.5)" rx="1.19" ry="0.93"/>
<path d="
  M 43.22 95.41
  Q 44.67 95.22 45.89 96.21
  A 0.89 0.88 58.5 0 1 45.52 97.76
  Q 44.45 97.99 44.06 97.41
  A 2.23 1.75 -48.8 0 0 40.76 98.03
  L 37.77 102.84
  Q 37.44 103.36 36.83 103.23
  L 36.27 103.10
  Q 35.51 102.93 35.93 102.27
  L 41.10 94.05
  A 0.52 0.52 0.0 0 1 41.99 94.07
  L 42.58 95.10
  Q 42.80 95.47 43.22 95.41
  Z"
/>
<rect x="-0.92" y="-5.35" transform="translate(82.04,101.24) rotate(-26.1)" width="1.84" height="10.70" rx="0.86"/>
<path d="
  M 44.60 109.46
  C 45.69 111.86 49.32 111.77 49.93 109.08
  Q 50.06 108.52 49.49 108.57
  C 41.67 109.25 42.74 97.45 50.69 98.05
  A 0.86 0.84 -15.3 0 1 51.32 98.40
  Q 52.50 100.01 54.47 99.75
  Q 55.02 99.68 54.88 100.20
  Q 53.50 105.58 51.27 110.58
  C 49.35 114.88 43.86 112.73 42.58 109.37
  Q 42.40 108.89 42.73 108.51
  Q 43.33 107.80 44.15 108.76
  Q 44.43 109.08 44.60 109.46
  Z"
/>
<path d="
  M 70.16 100.23
  Q 71.69 99.69 73.12 98.89
  Q 73.59 98.63 74.12 98.67
  C 77.87 98.97 78.67 105.40 79.23 107.96
  A 0.63 0.63 0.0 0 1 78.82 108.69
  Q 77.64 109.08 77.34 107.93
  Q 76.51 104.78 75.63 101.64
  Q 75.48 101.10 74.97 100.85
  Q 73.37 100.05 71.86 101.26
  A 2.26 2.26 0.0 0 0 71.07 103.56
  L 72.58 109.74
  Q 72.76 110.50 71.99 110.50
  L 71.51 110.50
  Q 70.98 110.50 70.84 109.99
  L 68.56 101.58
  Q 68.45 101.20 68.54 100.81
  Q 68.71 100.07 69.44 100.26
  Q 69.81 100.36 70.16 100.23
  Z"
/>
<path d="
  M 59.10 102.61
  Q 58.34 104.18 57.27 103.10
  A 1.00 0.99 51.4 0 1 57.44 101.56
  Q 61.10 99.21 65.04 101.04
  A 1.01 1.00 -78.5 0 1 65.62 101.92
  L 65.81 110.72
  A 0.65 0.65 0.0 0 1 64.65 111.14
  C 63.97 110.31 63.23 110.40 62.25 110.81
  C 55.88 113.45 53.21 104.21 62.90 104.75
  A 1.19 1.19 0.0 0 0 63.76 102.68
  Q 61.83 100.93 59.41 102.28
  A 0.78 0.73 -3.8 0 0 59.10 102.61
  Z"
/>
</g>
<g fill="#30a846">
<ellipse cx="0.00" cy="0.00" transform="translate(32.43,93.02) rotate(-42.3)" rx="4.04" ry="3.10"/>
<ellipse cx="0.00" cy="0.00" transform="translate(49.08,103.39) rotate(109.9)" rx="3.91" ry="2.91"/>
<path d="
  M 63.13 105.84
  A 0.50 0.50 0.0 0 1 63.74 106.20
  L 63.77 106.33
  A 2.76 2.73 -14.6 0 1 61.79 109.67
  L 61.64 109.71
  A 2.76 2.73 -14.6 0 1 58.28 107.76
  L 58.24 107.63
  A 0.50 0.50 0.0 0 1 58.60 107.02
  L 63.13 105.84
  Z"
/>
</g>
</svg>
