<?xml version="1.0" encoding="UTF-8" standalone="no"?>
<!DOCTYPE svg PUBLIC "-//W3C//DTD SVG 1.1//EN" "http://www.w3.org/Graphics/SVG/1.1/DTD/svg11.dtd">
<svg xmlns="http://www.w3.org/2000/svg" version="1.1" viewBox="0.00 0.00 375.00 127.00">
<g stroke-width="2.00" fill="none" stroke-linecap="butt">
<path stroke="#8ac05c" stroke-opacity="0.992" vector-effect="non-scaling-stroke" d="
  M 375.00 18.79
  L 371.47 18.76"
/>
<path stroke="#8ac05c" stroke-opacity="0.992" vector-effect="non-scaling-stroke" d="
  M 158.15 71.52
  C 153.51 69.75 149.50 67.25 147.38 62.52
  Q 143.73 54.34 145.10 44.86"
/>
<path stroke="#8ac05c" stroke-opacity="0.992" vector-effect="non-scaling-stroke" d="
  M 154.24 85.58
  C 151.75 81.87 151.19 78.81 145.59 80.88
  Q 140.04 82.93 135.59 79.21
  C 131.24 75.57 126.68 78.37 122.57 81.27
  Q 122.12 81.58 121.92 81.08
  C 119.03 74.00 113.35 69.12 106.40 75.63
  Q 102.42 79.37 96.54 76.70"
/>
<path stroke="#a2c683" stroke-opacity="0.992" vector-effect="non-scaling-stroke" d="
  M 225.48 83.01
  L 220.00 84.29
  A 1.12 1.10 4.8 0 0 219.25 84.91
  Q 218.80 85.90 219.46 87.02"
/>
<path stroke="#a2c683" stroke-opacity="0.992" vector-effect="non-scaling-stroke" d="
  M 219.87 88.22
  Q 219.88 89.12 218.54 89.23"
/>
<path stroke="#c4d2ba" stroke-opacity="0.808" vector-effect="non-scaling-stroke" d="
  M 187.59 66.77
  Q 188.25 65.44 188.18 63.71"
/>
<path stroke="#8ac05c" stroke-opacity="0.992" vector-effect="non-scaling-stroke" d="
  M 143.48 96.67
  Q 139.82 93.99 138.39 91.03
  A 0.97 0.96 81.4 0 0 137.68 90.50
  C 132.35 89.64 129.95 95.77 125.39 96.92
  C 122.50 97.66 118.65 94.60 116.33 96.75
  Q 115.30 97.70 115.28 99.17"
/>
<path stroke="#8ac05c" stroke-opacity="0.992" vector-effect="non-scaling-stroke" d="
  M 109.09 95.64
  Q 109.20 95.79 109.44 95.76
  Q 109.68 95.73 109.77 95.50
  L 112.08 89.63
  Q 112.23 89.25 112.64 89.25
  L 113.00 89.25
  A 0.62 0.62 0.0 0 1 113.50 90.23
  Q 111.34 93.27 111.12 96.92"
/>
<path stroke="#8ac05c" stroke-opacity="0.992" vector-effect="non-scaling-stroke" d="
  M 113.88 98.56
  Q 115.41 95.56 118.43 94.49
  A 1.34 1.31 -42.7 0 1 119.41 94.52
  Q 122.22 95.79 125.28 95.80
  A 1.04 1.03 25.5 0 0 125.92 95.58
  L 133.12 90.18
  Q 133.51 89.89 133.31 89.44
  Q 132.01 86.54 130.50 83.75
  Q 130.28 83.34 130.59 82.94
  A 0.43 0.43 0.0 0 1 131.30 83.01
  L 134.64 89.33
  A 0.68 0.67 66.8 0 0 135.44 89.66
  Q 137.48 89.01 139.19 90.20
  A 0.77 0.68 88.0 0 1 139.42 90.44
  L 141.11 93.21
  Q 141.60 94.01 142.01 93.17
  L 144.87 87.32
  A 0.44 0.43 -65.7 0 1 145.42 87.11
  Q 145.94 87.33 145.68 87.99
  Q 144.64 90.60 143.41 93.30
  Q 143.17 93.85 143.76 93.93
  Q 146.27 94.26 148.24 93.34"
/>
<path stroke="#8ac05c" stroke-opacity="0.992" vector-effect="non-scaling-stroke" d="
  M 153.27 87.60
  Q 153.03 82.03 148.42 81.44
  C 144.36 80.93 143.12 84.85 138.20 82.01
  C 135.89 80.68 131.22 77.69 128.55 79.29
  C 124.51 81.71 120.06 85.91 115.02 84.95
  C 109.69 83.94 105.56 83.56 101.78 88.49"
/>
<path stroke="#8ac05c" stroke-opacity="0.992" vector-effect="non-scaling-stroke" d="
  M 100.55 86.24
  L 100.93 86.25
  Q 101.42 86.27 101.79 85.93
  Q 106.28 81.85 112.35 83.28
  Q 112.93 83.42 112.93 82.82
  Q 112.94 80.17 112.13 77.66
  Q 111.69 76.32 112.93 76.37
  A 0.73 0.73 0.0 0 1 113.62 77.02
  L 114.35 83.17
  Q 114.40 83.67 114.91 83.73
  Q 117.80 84.05 120.25 82.58
  Q 120.68 82.32 120.53 81.84
  C 119.31 78.07 115.68 73.30 111.46 73.98
  C 105.65 74.92 106.38 81.61 97.49 78.86"
/>
<path stroke="#a2c683" stroke-opacity="0.992" vector-effect="non-scaling-stroke" d="
  M 42.22 122.80
  Q 44.62 122.20 43.88 120.04
  Q 43.71 119.56 43.86 119.06
  Q 44.93 115.46 48.28 112.39"
/>
<path stroke="#8ac05c" stroke-opacity="0.992" vector-effect="non-scaling-stroke" d="
  M 272.63 127.00
  Q 272.94 123.39 270.19 120.34"
/>
<path stroke="#8ac05c" stroke-opacity="0.992" vector-effect="non-scaling-stroke" d="
  M 262.93 119.39
  Q 263.00 123.01 267.44 127.00"
/>
<path stroke="#8ac05c" stroke-opacity="0.992" vector-effect="non-scaling-stroke" d="
  M 265.69 127.00
  Q 265.78 126.89 265.86 126.78
  Q 266.03 126.52 265.77 126.35
  Q 262.25 123.86 261.37 119.26"
/>
<path stroke="#8ac05c" stroke-opacity="0.992" vector-effect="non-scaling-stroke" d="
  M 250.28 121.32
  L 249.81 127.00"
/>
<path stroke="#8ac05c" stroke-opacity="0.992" vector-effect="non-scaling-stroke" d="
  M 249.04 127.00
  Q 249.34 124.63 248.64 122.43"
/>
<path stroke="#c4d2ba" stroke-opacity="0.808" vector-effect="non-scaling-stroke" d="
  M 61.07 91.75
  Q 60.15 92.65 59.72 93.70"
/>
<path stroke="#a2c683" stroke-opacity="0.992" vector-effect="non-scaling-stroke" d="
  M 4.22 126.71
  Q 4.58 126.01 4.31 125.71
  Q 1.58 122.65 0.00 119.62"
/>
<path stroke="#8ac05c" stroke-opacity="0.992" vector-effect="non-scaling-stroke" d="
  M 270.87 127.00
  L 268.52 121.38
  A 0.50 0.49 -53.9 0 0 267.57 121.53
  Q 267.34 124.35 269.65 126.35
  Q 269.89 126.55 269.43 127.00"
/>
</g>
<g fill="#bbee92">
<path d="
  M 371.47 18.76
  L 375.00 18.79
  L 375.00 25.69
  Q 370.80 23.84 371.47 18.76
  Z"
/>
<path d="
  M 145.10 44.86
  Q 143.73 54.34 147.38 62.52
  C 149.50 67.25 153.51 69.75 158.15 71.52
  Q 158.15 79.14 154.24 85.58
  C 151.75 81.87 151.19 78.81 145.59 80.88
  Q 140.04 82.93 135.59 79.21
  C 131.24 75.57 126.68 78.37 122.57 81.27
  Q 122.12 81.58 121.92 81.08
  C 119.03 74.00 113.35 69.12 106.40 75.63
  Q 102.42 79.37 96.54 76.70
  C 96.02 64.95 96.59 56.95 105.41 48.41
  C 116.76 37.42 131.81 36.86 145.10 44.86
  Z"
/>
<path d="
  M 100.55 86.24
  Q 98.36 83.02 97.49 78.86
  C 106.38 81.61 105.65 74.92 111.46 73.98
  C 115.68 73.30 119.31 78.07 120.53 81.84
  Q 120.68 82.32 120.25 82.58
  Q 117.80 84.05 114.91 83.73
  Q 114.40 83.67 114.35 83.17
  L 113.62 77.02
  A 0.73 0.73 0.0 0 0 112.93 76.37
  Q 111.69 76.32 112.13 77.66
  Q 112.94 80.17 112.93 82.82
  Q 112.93 83.42 112.35 83.28
  Q 106.28 81.85 101.79 85.93
  Q 101.42 86.27 100.93 86.25
  L 100.55 86.24
  Z"
/>
<path d="
  M 153.27 87.60
  L 148.24 93.34
  Q 146.27 94.26 143.76 93.93
  Q 143.17 93.85 143.41 93.30
  Q 144.64 90.60 145.68 87.99
  Q 145.94 87.33 145.42 87.11
  A 0.44 0.43 -65.7 0 0 144.87 87.32
  L 142.01 93.17
  Q 141.60 94.01 141.11 93.21
  L 139.42 90.44
  A 0.77 0.68 88.0 0 0 139.19 90.20
  Q 137.48 89.01 135.44 89.66
  A 0.68 0.67 66.8 0 1 134.64 89.33
  L 131.30 83.01
  A 0.43 0.43 0.0 0 0 130.59 82.94
  Q 130.28 83.34 130.50 83.75
  Q 132.01 86.54 133.31 89.44
  Q 133.51 89.89 133.12 90.18
  L 125.92 95.58
  A 1.04 1.03 25.5 0 1 125.28 95.80
  Q 122.22 95.79 119.41 94.52
  A 1.34 1.31 -42.7 0 0 118.43 94.49
  Q 115.41 95.56 113.88 98.56
  Q 112.88 97.39 111.12 96.92
  Q 111.34 93.27 113.50 90.23
  A 0.62 0.62 0.0 0 0 113.00 89.25
  L 112.64 89.25
  Q 112.23 89.25 112.08 89.63
  L 109.77 95.50
  Q 109.68 95.73 109.44 95.76
  Q 109.20 95.79 109.09 95.64
  L 101.78 88.49
  C 105.56 83.56 109.69 83.94 115.02 84.95
  C 120.06 85.91 124.51 81.71 128.55 79.29
  C 131.22 77.69 135.89 80.68 138.20 82.01
  C 143.12 84.85 144.36 80.93 148.42 81.44
  Q 153.03 82.03 153.27 87.60
  Z"
/>
<path d="
  M 143.48 96.67
  Q 130.43 104.60 115.28 99.17
  Q 115.30 97.70 116.33 96.75
  C 118.65 94.60 122.50 97.66 125.39 96.92
  C 129.95 95.77 132.35 89.64 137.68 90.50
  A 0.97 0.96 81.4 0 1 138.39 91.03
  Q 139.82 93.99 143.48 96.67
  Z"
/>
<path d="
  M 248.64 122.43
  Q 249.34 124.63 249.04 127.00
  L 241.82 127.00
  Q 242.88 119.24 242.30 111.74
  A 0.48 0.47 -7.5 0 1 242.69 111.24
  Q 243.35 111.12 243.46 112.02
  Q 244.23 118.48 243.33 124.71
  A 0.57 0.57 0.0 0 0 244.21 125.27
  L 248.64 122.43
  Z"
/>
<path d="
  M 261.37 119.26
  Q 262.25 123.86 265.77 126.35
  Q 266.03 126.52 265.86 126.78
  Q 265.78 126.89 265.69 127.00
  L 249.81 127.00
  L 250.28 121.32
  Q 255.63 118.98 261.37 119.26
  Z"
/>
<path d="
  M 262.93 119.39
  L 270.19 120.34
  Q 272.94 123.39 272.63 127.00
  L 270.87 127.00
  L 268.52 121.38
  A 0.50 0.49 -53.9 0 0 267.57 121.53
  Q 267.34 124.35 269.65 126.35
  Q 269.89 126.55 269.43 127.00
  L 267.44 127.00
  Q 263.00 123.01 262.93 119.39
  Z"
/>
</g>
<g fill="#ebf9df">
<path d="
  M 225.48 83.01
  L 220.00 84.29
  A 1.12 1.10 4.8 0 0 219.25 84.91
  Q 218.80 85.90 219.46 87.02
  Q 219.40 87.99 219.87 88.22
  Q 219.88 89.12 218.54 89.23
  L 217.84 86.13
  Q 217.70 85.52 217.16 85.83
  C 211.96 88.78 212.37 93.59 208.23 97.37
  Q 199.78 105.10 187.70 103.42
  C 180.48 102.42 179.87 94.91 174.04 91.51
  C 169.26 88.73 163.04 89.57 160.50 83.95
  C 158.83 80.27 162.57 76.78 165.79 75.76
  C 168.24 74.99 172.36 76.75 175.42 75.95
  C 179.99 74.76 186.24 71.88 187.59 66.77
  Q 188.25 65.44 188.18 63.71
  Q 190.46 61.50 192.50 61.44
  Q 214.65 60.87 225.05 79.96
  Q 225.65 81.07 225.48 83.01
  Z"
/>
<path d="
  M 61.07 91.75
  Q 60.15 92.65 59.72 93.70
  C 54.78 99.92 49.96 104.11 48.28 112.39
  Q 44.93 115.46 43.86 119.06
  Q 43.71 119.56 43.88 120.04
  Q 44.62 122.20 42.22 122.80
  L 37.53 127.00
  L 4.69 127.00
  Q 4.86 126.74 4.22 126.71
  Q 4.58 126.01 4.31 125.71
  Q 1.58 122.65 0.00 119.62
  L 0.00 99.89
  Q 18.96 88.13 40.31 86.09
  C 44.68 85.67 58.40 87.02 61.07 91.75
  Z"
/>
</g>
<g fill="#589225" fill-opacity="0.984">
<path d="
  M 360.92 0.00
  L 361.98 0.00
  C 364.44 3.81 361.83 6.05 362.21 9.42
  C 362.65 13.38 368.09 16.10 371.54 17.05
  Q 372.13 17.21 372.44 16.69
  L 373.52 14.87
  A 0.60 0.59 -67.6 0 0 373.16 13.99
  L 367.12 12.43
  A 0.60 0.60 0.0 0 1 367.42 11.26
  L 375.00 13.15
  L 375.00 18.79
  L 371.47 18.76
  C 366.41 16.01 358.11 14.03 361.33 6.32
  Q 362.10 4.48 360.92 0.00
  Z"
/>
<path d="
  M 370.59 0.00
  L 371.04 0.00
  Q 372.11 1.22 372.99 0.41
  A 1.12 1.12 0.0 0 1 374.83 1.47
  Q 374.35 3.70 375.00 5.09
  L 375.00 6.22
  Q 369.48 8.01 364.87 4.31
  Q 364.66 4.14 364.83 3.81
  Q 365.10 3.31 365.59 3.59
  Q 368.93 5.49 372.76 5.25
  A 0.74 0.74 0.0 0 0 373.20 3.95
  Q 371.71 2.66 370.27 0.86
  Q 369.98 0.50 370.04 0.42
  Q 370.15 0.25 370.59 0.00
  Z"
/>
<path d="
  M 158.15 71.52
  C 153.51 69.75 149.50 67.25 147.38 62.52
  Q 143.73 54.34 145.10 44.86
  Q 146.97 38.05 149.30 33.80
  Q 150.40 31.80 153.00 29.74
  Q 153.38 29.44 153.86 29.50
  Q 155.39 29.68 155.53 28.02
  Q 155.66 26.50 155.83 25.52
  A 0.72 0.71 -81.8 0 1 156.61 24.93
  L 159.51 25.22
  A 0.83 0.82 3.1 0 1 160.25 26.04
  L 160.25 28.50
  Q 160.25 29.02 160.74 29.21
  C 171.29 33.29 189.19 43.35 188.09 57.04
  Q 187.82 60.47 185.63 65.76
  Q 184.71 67.99 182.85 69.34
  C 175.73 74.49 166.88 74.06 158.15 71.52
  Z
  M 158.8241 27.3710
  A 0.79 0.79 0.0 0 0 158.1060 26.5152
  L 157.4285 26.4559
  A 0.79 0.79 0.0 0 0 156.5727 27.1741
  L 156.4559 28.5090
  A 0.79 0.79 0.0 0 0 157.1740 29.3648
  L 157.8515 29.4241
  A 0.79 0.79 0.0 0 0 158.7073 28.7059
  L 158.8241 27.3710
  Z
  M 157.77 51.24
  C 161.35 59.25 169.86 62.78 178.20 63.43
  Q 178.60 63.46 178.55 63.06
  Q 178.49 62.56 178.00 62.48
  C 163.10 59.85 156.79 44.90 157.20 31.02
  A 0.59 0.59 0.0 0 0 156.11 30.70
  C 152.70 36.21 152.32 49.78 155.05 55.56
  C 159.60 65.20 171.45 72.05 181.70 66.24
  A 0.52 0.52 0.0 0 0 181.52 65.27
  Q 178.39 64.80 174.75 64.47
  C 168.13 63.89 159.47 58.57 156.79 51.71
  A 0.46 0.41 41.4 0 1 156.76 51.47
  Q 156.90 50.59 157.52 50.95
  Q 157.68 51.04 157.77 51.24
  Z
  M 162.69 32.31
  Q 169.76 36.75 177.01 43.22
  C 181.76 47.47 185.54 51.40 185.50 57.74
  A 0.64 0.64 0.0 0 0 186.74 57.94
  C 190.42 46.54 170.72 34.78 162.44 31.21
  Q 161.79 30.93 162.03 31.60
  Q 162.17 31.99 162.69 32.31
  Z
  M 182.25 56.45
  C 177.83 49.87 172.31 46.09 167.00 40.58
  A 0.46 0.46 0.0 0 1 167.60 39.89
  Q 176.91 46.76 183.63 56.12
  A 0.31 0.31 0.0 0 0 184.19 55.90
  C 183.23 47.31 167.38 36.82 160.60 32.29
  A 0.23 0.23 0.0 0 0 160.26 32.57
  Q 163.62 39.72 167.63 46.59
  C 171.38 53.00 175.48 53.90 181.70 57.07
  A 0.43 0.43 0.0 0 0 182.25 56.45
  Z
  M 158.58 33.74
  C 159.02 44.78 164.08 57.79 175.81 60.79
  C 178.82 61.56 181.04 62.30 183.68 62.74
  A 0.66 0.66 0.0 0 0 184.44 61.95
  C 183.53 57.54 174.67 56.03 171.40 53.01
  C 166.05 48.08 162.41 40.14 159.56 33.52
  A 0.51 0.51 0.0 0 0 158.58 33.74
  Z
  M 151.06 50.88
  Q 150.88 50.93 150.75 50.99
  Q 150.34 51.17 150.36 51.62
  C 150.49 54.38 153.62 64.88 157.51 64.49
  C 158.23 67.29 167.88 69.69 170.48 70.08
  Q 170.87 70.14 171.09 69.74
  Q 171.34 69.28 170.83 69.18
  Q 162.93 67.61 157.31 62.00
  L 151.96 51.94
  Q 152.01 52.07 152.25 52.00
  Q 152.45 51.94 152.43 51.74
  Q 151.18 42.66 153.63 33.82
  A 0.36 0.36 0.0 0 0 152.97 33.56
  C 150.50 38.09 147.68 46.57 151.06 50.88
  Z
  M 147.01 46.95
  Q 146.88 47.05 146.77 47.12
  Q 146.54 47.26 146.50 47.52
  Q 143.90 63.02 157.22 69.82
  Q 157.48 69.95 157.72 69.94
  Q 157.99 69.94 158.25 69.88
  Q 162.74 71.86 168.97 71.94
  A 0.41 0.41 0.0 0 0 169.11 71.14
  L 158.30 67.55
  Q 149.37 61.14 148.78 49.71
  C 148.72 48.55 148.27 48.01 147.46 47.31
  Q 147.80 47.28 148.00 47.13
  Q 148.17 47.00 148.20 46.67
  Q 148.78 40.36 150.91 34.41
  Q 150.95 34.31 150.88 34.23
  Q 150.77 34.10 150.65 34.07
  Q 150.57 34.05 150.53 34.13
  C 148.67 37.60 146.00 43.01 147.01 46.95
  Z"
/>
<path d="
  M 375.00 40.67
  L 375.00 41.71
  C 359.00 37.47 344.95 41.74 338.18 57.49
  C 332.59 70.49 349.17 75.32 350.05 66.33
  A 1.01 1.01 0.0 0 0 348.99 65.22
  Q 344.49 65.48 340.82 63.46
  Q 339.75 62.87 339.84 61.98
  Q 339.91 61.21 340.52 61.67
  Q 344.80 64.85 350.16 63.86
  A 0.67 0.66 -2.9 0 0 350.71 63.26
  Q 350.92 60.84 352.54 59.05
  A 0.91 0.90 -57.6 0 0 352.22 57.60
  Q 346.70 55.31 345.41 49.45
  A 0.75 0.75 0.0 0 1 346.70 48.80
  Q 347.16 49.33 347.01 50.03
  Q 346.90 50.58 347.13 51.09
  Q 349.05 55.30 353.42 56.82
  Q 353.83 56.97 354.18 56.71
  L 358.37 53.60
  A 0.91 0.90 -37.2 0 0 358.55 52.33
  C 357.31 50.68 354.46 44.49 357.49 43.32
  Q 358.11 43.08 357.96 43.73
  C 357.43 46.01 358.10 53.48 362.01 52.46
  Q 364.44 51.82 367.06 51.49
  Q 367.59 51.42 367.53 50.90
  C 367.11 47.32 367.14 44.24 369.67 41.72
  Q 370.02 41.37 370.21 41.83
  C 370.77 43.18 367.11 46.97 369.11 51.28
  Q 369.32 51.73 369.81 51.85
  L 375.00 53.17
  L 375.00 54.73
  C 368.00 51.97 359.32 52.14 354.48 58.56
  C 352.76 60.84 352.16 63.87 351.27 66.81
  C 348.36 76.46 336.72 72.03 335.80 64.49
  C 335.20 59.62 338.32 53.24 341.42 49.43
  Q 354.44 33.36 375.00 40.67
  Z"
/>
<path d="
  M 0.00 39.67
  L 0.00 38.75
  C 11.79 41.43 20.18 51.60 15.71 63.86
  Q 13.63 69.56 7.78 70.19
  A 2.58 2.57 85.2 0 1 4.94 67.78
  Q 4.80 65.17 6.33 63.15
  A 1.49 1.49 0.0 0 0 6.03 61.05
  L 5.70 60.81
  A 1.80 1.80 0.0 0 0 2.89 61.83
  Q 1.27 68.50 1.78 75.70
  C 1.88 77.11 1.60 77.88 1.01 79.06
  Q 0.79 79.52 0.84 80.02
  Q 1.27 84.09 0.48 88.11
  A 0.07 0.07 0.0 0 1 0.35 88.10
  Q -0.04 82.43 0.60 76.78
  C 1.06 72.70 0.53 68.71 0.95 64.56
  C 1.12 62.86 1.94 61.75 2.58 60.15
  A 1.21 1.15 89.9 0 1 3.17 59.53
  Q 5.28 58.54 6.90 60.03
  C 9.33 62.29 6.27 64.71 6.41 66.91
  C 6.51 68.68 8.13 69.34 9.69 68.61
  Q 11.88 67.60 12.87 65.98
  Q 13.53 64.90 12.38 64.37
  Q 11.16 63.81 11.27 62.47
  A 0.44 0.43 22.8 0 1 11.99 62.18
  L 13.63 63.62
  A 0.52 0.51 28.7 0 0 14.47 63.38
  L 15.24 60.73
  Q 15.49 59.90 14.62 60.01
  Q 13.70 60.13 13.03 59.30
  Q 12.94 59.18 13.05 59.08
  Q 13.16 58.97 13.27 58.86
  A 0.34 0.31 -67.3 0 1 13.51 58.75
  L 14.76 58.75
  Q 15.46 58.75 15.53 58.06
  Q 15.82 55.16 14.63 52.50
  Q 14.40 51.99 13.87 52.15
  L 11.75 52.78
  A 0.44 0.44 0.0 0 1 11.24 52.13
  Q 11.94 50.95 13.41 50.96
  A 0.48 0.48 0.0 0 0 13.82 50.21
  L 10.75 45.65
  A 0.56 0.55 52.1 0 0 9.92 45.54
  L 7.88 47.32
  Q 7.68 47.48 7.43 47.51
  Q 7.14 47.54 6.96 47.35
  Q 6.71 47.08 6.94 46.80
  L 8.52 44.76
  A 0.63 0.63 0.0 0 0 8.42 43.89
  Q 5.94 41.81 3.68 41.08
  Q 1.76 40.45 1.56 42.63
  Q 1.51 43.17 1.05 42.87
  C 0.47 42.48 1.08 40.63 0.00 39.67
  Z"
/>
<path d="
  M 0.00 60.94
  L 0.00 60.43
  Q 1.15 58.28 4.14 56.66
  A 0.61 0.60 17.1 0 0 3.57 55.59
  L 2.45 56.16
  A 0.58 0.58 0.0 0 1 1.62 55.54
  L 2.10 52.87
  A 0.47 0.47 0.0 0 0 1.39 52.38
  Q -0.20 53.34 0.00 52.52
  L 0.00 51.71
  Q 1.58 48.99 3.12 50.55
  A 1.30 1.30 0.0 0 1 3.50 51.47
  L 3.50 53.39
  A 0.47 0.46 -6.5 0 0 4.07 53.84
  L 5.65 53.48
  A 1.35 1.34 -71.6 0 1 6.82 55.82
  L 0.51 61.19
  Q 0.33 61.35 0.21 61.14
  Q 0.13 61.00 0.00 60.94
  Z"
/>
<path d="
  M 154.24 85.58
  Q 154.81 87.35 156.17 88.82
  A 1.74 1.74 0.0 0 0 157.13 89.36
  Q 159.94 89.93 160.94 92.59
  Q 161.14 93.10 160.96 93.62
  Q 159.52 97.75 155.84 100.12
  A 0.94 0.94 0.0 0 0 156.70 101.79
  C 160.94 100.10 168.57 101.04 170.17 106.35
  Q 170.32 106.85 170.17 107.34
  Q 168.41 112.92 171.02 117.82
  C 172.89 121.33 173.51 124.14 170.72 127.00
  L 169.40 127.00
  C 174.00 121.07 167.32 117.48 168.15 111.45
  Q 168.51 108.82 168.87 106.06
  A 1.06 1.05 21.0 0 0 168.41 105.04
  Q 163.20 101.55 156.86 103.06
  Q 155.79 103.31 156.59 104.07
  L 159.82 107.10
  A 0.72 0.72 0.0 0 0 160.64 107.22
  L 164.85 105.11
  A 0.42 0.42 0.0 0 1 165.27 105.83
  L 161.46 108.38
  A 0.50 0.50 0.0 0 0 161.32 109.08
  C 164.88 114.37 160.97 116.73 158.02 120.41
  A 0.84 0.84 0.0 0 0 158.78 121.77
  Q 162.95 121.21 165.81 118.26
  Q 166.18 117.88 166.62 118.16
  Q 167.45 118.69 166.69 119.45
  A 1.22 0.01 -37.1 0 1 165.76 120.16
  Q 162.43 122.70 158.26 123.46
  Q 157.54 123.59 157.81 124.26
  L 158.62 126.26
  Q 158.78 126.67 158.36 126.78
  Q 157.97 126.89 157.58 126.74
  Q 157.07 126.55 156.81 125.83
  Q 155.00 120.95 158.43 117.60
  C 167.90 108.36 149.43 106.11 154.73 98.37
  A 1.33 1.29 -31.7 0 0 154.95 97.50
  Q 154.72 95.50 152.92 95.08
  Q 147.50 93.81 143.48 96.67
  Q 139.82 93.99 138.39 91.03
  A 0.97 0.96 81.4 0 0 137.68 90.50
  C 132.35 89.64 129.95 95.77 125.39 96.92
  C 122.50 97.66 118.65 94.60 116.33 96.75
  Q 115.30 97.70 115.28 99.17
  Q 114.40 104.88 110.64 105.68
  C 108.55 106.13 104.73 104.86 102.18 104.46
  A 2.49 2.49 0.0 0 0 99.32 106.82
  C 99.17 110.70 99.58 118.18 92.88 116.56
  C 90.18 115.91 84.26 112.97 84.95 118.96
  Q 85.52 123.96 83.59 127.00
  L 74.96 127.00
  Q 74.67 126.66 73.86 126.75
  Q 73.27 126.82 73.57 126.31
  Q 73.68 126.11 74.01 126.08
  Q 77.02 125.88 80.49 126.30
  A 0.69 0.69 0.0 0 0 81.04 125.11
  Q 76.33 120.85 72.21 115.29
  Q 71.47 114.28 71.71 113.43
  A 0.60 0.60 0.0 0 1 72.77 113.25
  L 76.62 118.67
  A 0.51 0.51 0.0 0 0 77.53 118.46
  Q 78.30 114.24 78.85 110.18
  Q 79.04 108.74 79.99 109.31
  A 1.08 1.07 -69.7 0 1 80.50 110.44
  L 78.70 120.00
  Q 78.58 120.62 79.01 121.08
  L 82.52 124.83
  A 0.62 0.62 0.0 0 0 83.58 124.33
  C 83.11 120.49 82.02 114.67 87.33 113.71
  C 89.46 113.32 92.22 114.90 94.40 115.48
  A 0.83 0.83 0.0 0 0 95.32 114.25
  Q 91.81 108.33 92.60 101.45
  Q 92.67 100.78 93.29 101.05
  Q 94.22 101.45 94.09 102.77
  Q 93.52 108.59 96.19 113.40
  A 0.71 0.70 -61.0 0 0 97.51 113.02
  C 97.00 103.07 100.19 102.53 108.96 104.38
  A 1.03 1.03 0.0 0 0 110.11 102.95
  Q 107.74 97.76 103.56 93.95
  A 0.53 0.53 0.0 0 1 103.48 93.26
  Q 103.92 92.62 104.55 93.20
  Q 106.78 95.26 108.46 97.63
  A 0.55 0.55 0.0 0 0 109.44 97.19
  L 109.09 95.64
  Q 109.20 95.79 109.44 95.76
  Q 109.68 95.73 109.77 95.50
  L 112.08 89.63
  Q 112.23 89.25 112.64 89.25
  L 113.00 89.25
  A 0.62 0.62 0.0 0 1 113.50 90.23
  Q 111.34 93.27 111.12 96.92
  Q 108.59 99.74 111.87 102.76
  Q 112.39 103.24 112.60 102.57
  L 113.88 98.56
  Q 115.41 95.56 118.43 94.49
  A 1.34 1.31 -42.7 0 1 119.41 94.52
  Q 122.22 95.79 125.28 95.80
  A 1.04 1.03 25.5 0 0 125.92 95.58
  L 133.12 90.18
  Q 133.51 89.89 133.31 89.44
  Q 132.01 86.54 130.50 83.75
  Q 130.28 83.34 130.59 82.94
  A 0.43 0.43 0.0 0 1 131.30 83.01
  L 134.64 89.33
  A 0.68 0.67 66.8 0 0 135.44 89.66
  Q 137.48 89.01 139.19 90.20
  A 0.77 0.68 88.0 0 1 139.42 90.44
  L 141.11 93.21
  Q 141.60 94.01 142.01 93.17
  L 144.87 87.32
  A 0.44 0.43 -65.7 0 1 145.42 87.11
  Q 145.94 87.33 145.68 87.99
  Q 144.64 90.60 143.41 93.30
  Q 143.17 93.85 143.76 93.93
  Q 146.27 94.26 148.24 93.34
  Q 154.80 92.42 156.72 96.81
  Q 156.94 97.32 157.39 96.99
  Q 159.20 95.63 159.76 93.43
  A 1.43 1.42 -73.6 0 0 158.84 91.73
  Q 155.18 90.48 153.27 87.60
  Q 153.03 82.03 148.42 81.44
  C 144.36 80.93 143.12 84.85 138.20 82.01
  C 135.89 80.68 131.22 77.69 128.55 79.29
  C 124.51 81.71 120.06 85.91 115.02 84.95
  C 109.69 83.94 105.56 83.56 101.78 88.49
  C 99.69 90.88 97.09 95.82 94.50 96.95
  C 90.28 98.80 85.16 93.80 81.54 97.12
  C 77.89 100.46 81.33 110.77 72.79 108.71
  C 63.62 106.50 67.08 115.64 64.85 120.29
  Q 64.60 120.79 64.05 120.85
  C 59.83 121.33 54.70 120.19 54.55 126.18
  Q 54.54 126.75 53.97 126.75
  L 53.52 126.75
  Q 53.01 126.75 53.10 126.24
  Q 54.50 118.63 62.32 119.56
  A 0.51 0.50 68.3 0 0 62.70 118.67
  L 56.87 113.82
  Q 56.74 113.71 56.74 113.54
  Q 56.74 113.40 56.76 113.26
  Q 56.88 112.62 57.46 112.91
  Q 60.88 114.61 63.26 117.56
  A 0.69 0.69 0.0 0 0 64.49 117.15
  C 64.54 114.77 64.07 111.71 65.23 109.68
  Q 67.49 105.71 72.72 107.18
  A 0.65 0.65 0.0 0 0 73.49 106.29
  Q 71.11 100.87 66.55 97.08
  Q 66.16 96.75 66.40 96.30
  Q 66.86 95.44 67.75 96.02
  Q 70.63 97.91 72.25 100.72
  A 0.64 0.64 0.0 0 0 73.39 100.67
  Q 74.47 98.33 74.23 95.73
  A 0.42 0.42 0.0 0 1 74.71 95.28
  L 75.23 95.35
  A 0.36 0.34 5.0 0 1 75.53 95.69
  Q 75.55 99.51 74.15 103.06
  A 1.16 1.13 46.4 0 0 74.14 103.85
  L 75.16 106.71
  A 0.44 0.44 0.0 0 0 75.78 106.95
  C 78.73 105.35 77.78 99.25 80.55 96.39
  Q 84.28 92.54 89.19 95.83
  Q 92.34 97.94 92.46 94.16
  Q 92.57 90.82 92.49 85.79
  C 92.47 84.52 91.62 83.23 91.76 82.05
  A 0.65 0.65 0.0 0 1 93.04 81.96
  Q 94.48 87.57 93.92 93.49
  Q 93.50 98.00 96.02 94.23
  L 100.15 88.04
  Q 100.44 87.60 100.49 87.08
  L 100.55 86.24
  L 100.93 86.25
  Q 101.42 86.27 101.79 85.93
  Q 106.28 81.85 112.35 83.28
  Q 112.93 83.42 112.93 82.82
  Q 112.94 80.17 112.13 77.66
  Q 111.69 76.32 112.93 76.37
  A 0.73 0.73 0.0 0 1 113.62 77.02
  L 114.35 83.17
  Q 114.40 83.67 114.91 83.73
  Q 117.80 84.05 120.25 82.58
  Q 120.68 82.32 120.53 81.84
  C 119.31 78.07 115.68 73.30 111.46 73.98
  C 105.65 74.92 106.38 81.61 97.49 78.86
  C 84.08 73.35 87.44 89.08 78.51 91.03
  Q 75.16 91.76 69.72 91.99
  C 53.79 92.67 66.07 110.38 51.91 113.14
  Q 49.44 113.62 48.35 114.53
  Q 42.76 119.17 46.92 127.00
  L 45.68 127.00
  C 44.35 125.72 44.75 122.26 42.22 122.80
  Q 44.62 122.20 43.88 120.04
  Q 43.71 119.56 43.86 119.06
  Q 44.93 115.46 48.28 112.39
  Q 53.31 111.64 55.41 110.18
  C 60.52 106.60 56.28 98.99 60.27 94.76
  Q 61.51 93.54 61.58 92.62
  C 65.28 91.26 67.77 90.68 72.23 90.53
  Q 75.41 90.43 78.48 89.48
  C 84.22 87.70 83.73 80.31 88.53 77.57
  C 90.80 76.28 93.90 76.77 96.54 76.70
  Q 102.42 79.37 106.40 75.63
  C 113.35 69.12 119.03 74.00 121.92 81.08
  Q 122.12 81.58 122.57 81.27
  C 126.68 78.37 131.24 75.57 135.59 79.21
  Q 140.04 82.93 145.59 80.88
  C 151.19 78.81 151.75 81.87 154.24 85.58
  Z"
/>
<path d="
  M 287.78 127.00
  L 285.45 127.00
  L 285.21 126.70
  Q 285.01 126.45 285.28 126.26
  C 288.18 124.27 295.86 118.20 291.56 114.29
  A 1.06 1.04 -29.6 0 0 290.62 114.04
  C 286.42 114.97 282.75 121.05 281.15 124.84
  A 0.34 0.34 0.0 0 0 281.73 125.17
  L 284.51 121.46
  Q 284.73 121.18 285.03 121.00
  L 285.32 120.83
  A 0.55 0.47 -82.5 0 1 285.87 121.67
  L 281.75 127.00
  L 272.63 127.00
  Q 272.94 123.39 270.19 120.34
  C 270.11 117.88 267.26 114.60 264.71 116.25
  Q 263.37 117.11 262.93 119.39
  Q 263.00 123.01 267.44 127.00
  L 265.69 127.00
  Q 265.78 126.89 265.86 126.78
  Q 266.03 126.52 265.77 126.35
  Q 262.25 123.86 261.37 119.26
  C 261.82 115.62 264.96 113.25 268.45 115.05
  C 271.59 116.68 271.53 121.60 274.82 122.06
  A 1.31 1.31 0.0 0 0 276.00 119.90
  Q 270.76 113.85 268.39 106.71
  C 266.36 100.60 273.15 97.84 276.52 102.50
  C 278.26 104.90 278.06 108.99 277.87 112.10
  A 0.49 0.49 0.0 0 0 278.82 112.31
  L 281.67 105.21
  A 0.94 0.93 33.6 0 0 281.46 104.20
  Q 275.72 98.51 274.31 91.45
  C 273.65 88.17 276.53 86.00 279.46 87.78
  C 282.39 89.57 284.21 95.74 283.70 99.07
  A 0.43 0.43 0.0 0 0 284.51 99.31
  Q 285.84 96.36 286.05 93.13
  C 286.46 87.13 282.02 76.30 290.10 73.36
  Q 291.28 72.94 292.31 73.34
  C 298.38 75.74 293.17 87.07 291.25 90.64
  C 290.44 92.14 288.77 93.27 288.15 95.00
  A 0.49 0.49 0.0 0 0 288.98 95.49
  Q 290.97 93.22 294.01 92.69
  A 1.01 1.01 0.0 0 1 294.98 93.05
  C 296.89 95.42 295.49 97.62 293.97 99.65
  Q 293.65 100.09 294.08 100.42
  C 298.83 104.09 293.33 109.68 290.38 112.01
  A 0.46 0.45 -57.8 0 0 290.56 112.81
  C 293.86 113.58 295.01 116.24 293.40 119.29
  Q 291.33 123.21 287.78 127.00
  Z
  M 290.12 82.98
  L 288.44 91.56
  A 0.22 0.21 67.0 0 0 288.83 91.72
  Q 293.40 84.57 293.21 76.09
  A 1.81 1.81 0.0 0 0 290.84 74.41
  C 285.08 76.29 286.40 83.79 286.87 88.49
  A 0.34 0.34 0.0 0 0 287.52 88.58
  Q 288.48 86.23 288.29 83.58
  Q 288.20 82.37 289.53 82.30
  A 0.57 0.57 0.0 0 1 290.12 82.98
  Z
  M 278.22 93.60
  A 0.47 0.47 0.0 0 1 279.12 93.41
  L 281.54 99.75
  A 0.37 0.37 0.0 0 0 282.25 99.64
  C 282.44 96.39 281.96 88.39 277.21 88.61
  A 1.95 1.94 -9.9 0 0 275.44 91.12
  Q 276.84 95.74 279.01 99.71
  Q 279.32 100.27 279.87 100.24
  Q 280.50 100.21 280.16 99.68
  Q 278.40 96.90 278.22 93.60
  Z
  M 291.69 97.43
  L 288.71 100.42
  Q 288.32 100.80 288.75 101.13
  Q 289.20 101.47 289.78 101.02
  C 291.39 99.80 294.87 97.83 294.21 95.49
  Q 293.68 93.62 292.02 94.63
  Q 289.87 95.93 288.23 98.01
  A 0.42 0.42 0.0 0 0 288.82 98.59
  L 290.97 96.82
  Q 291.15 96.67 291.34 96.79
  L 291.63 96.96
  Q 291.96 97.16 291.69 97.43
  Z
  M 273.01 108.18
  Q 273.99 105.81 274.27 108.22
  Q 274.59 111.00 275.78 113.89
  A 0.65 0.65 0.0 0 0 277.03 113.66
  C 277.15 109.77 277.62 101.39 271.56 101.56
  A 1.90 1.90 0.0 0 0 269.71 103.51
  Q 269.90 110.51 274.52 115.73
  Q 275.18 116.48 274.91 115.52
  L 272.97 108.79
  A 0.91 0.89 -41.8 0 1 273.01 108.18
  Z
  M 289.16 106.41
  Q 289.90 106.88 289.25 107.50
  Q 285.96 110.63 283.25 114.39
  A 0.29 0.29 0.0 0 0 283.61 114.82
  C 286.25 113.46 296.38 106.79 294.50 102.98
  C 292.16 98.25 284.90 108.54 283.93 110.36
  A 0.34 0.34 0.0 0 0 284.47 110.76
  L 288.60 106.48
  A 0.44 0.44 0.0 0 1 289.16 106.41
  Z
  M 284.35 107.63
  L 288.04 103.08
  A 0.18 0.18 0.0 0 0 288.02 102.83
  L 287.99 102.81
  A 2.94 1.43 -50.9 0 0 285.03 104.19
  L 284.82 104.45
  A 2.94 1.43 -50.9 0 0 284.07 107.64
  L 284.10 107.66
  A 0.18 0.18 0.0 0 0 284.35 107.63
  Z
  M 282.3937 108.9724
  A 0.37 0.37 0.0 0 0 282.1521 108.5082
  L 281.6753 108.3579
  A 0.37 0.37 0.0 0 0 281.2111 108.5995
  L 276.5863 123.2676
  A 0.37 0.37 0.0 0 0 276.8279 123.7318
  L 277.3047 123.8821
  A 0.37 0.37 0.0 0 0 277.7689 123.6405
  L 282.3937 108.9724
  Z
  M 279.57 124.57
  L 285.47 115.62
  A 0.01 0.01 0.0 0 0 285.47 115.60
  L 285.46 115.60
  A 5.25 2.02 -56.6 0 0 280.88 118.87
  L 280.75 119.07
  A 5.25 2.02 -56.6 0 0 279.55 124.56
  L 279.56 124.57
  A 0.01 0.01 0.0 0 0 279.57 124.57
  Z"
/>
<path d="
  M 225.48 83.01
  Q 228.61 84.09 232.73 83.23
  C 240.25 81.66 236.26 93.24 236.52 96.81
  A 0.84 0.83 10.7 0 0 237.01 97.52
  C 246.58 101.97 250.82 111.09 250.28 121.32
  L 249.81 127.00
  L 249.04 127.00
  Q 249.34 124.63 248.64 122.43
  C 249.61 114.51 246.55 104.47 239.16 100.36
  A 0.48 0.48 0.0 0 0 238.50 101.00
  L 240.33 104.67
  A 0.60 0.60 0.0 0 1 240.35 105.18
  Q 240.24 105.46 240.17 105.56
  A 0.75 0.59 -41.0 0 1 238.98 105.62
  L 236.86 99.60
  Q 236.63 98.96 235.98 98.75
  L 233.16 97.85
  A 0.54 0.53 85.7 0 0 232.52 98.60
  Q 237.62 108.97 238.72 117.48
  Q 239.00 119.68 238.62 127.00
  L 237.72 127.00
  L 237.47 126.77
  Q 237.18 126.50 237.20 126.10
  Q 237.86 110.92 230.49 97.79
  A 0.72 0.71 -17.6 0 0 229.79 97.43
  L 225.43 97.83
  Q 224.90 97.88 224.69 98.37
  Q 220.63 107.83 215.70 116.88
  C 214.91 118.33 212.38 126.54 212.21 126.67
  Q 211.92 126.89 211.50 126.73
  A 0.63 0.62 -71.9 0 1 211.13 125.98
  C 211.93 123.05 212.64 119.97 214.09 117.23
  C 217.31 111.19 220.53 105.67 222.84 99.17
  A 0.61 0.61 0.0 0 0 222.08 98.39
  C 211.87 101.70 206.39 108.90 202.59 118.43
  Q 200.97 122.52 200.34 127.00
  L 199.02 127.00
  C 200.75 113.59 208.54 102.04 220.74 96.85
  Q 221.18 96.67 221.02 96.21
  L 218.54 89.23
  Q 219.88 89.12 219.87 88.22
  L 222.45 96.30
  Q 222.52 96.54 222.78 96.51
  L 223.22 96.45
  A 0.39 0.39 0.0 0 0 223.54 95.96
  L 220.82 86.45
  A 0.53 0.53 0.0 0 0 220.08 86.12
  Q 219.51 86.40 219.46 87.02
  Q 218.80 85.90 219.25 84.91
  A 1.12 1.10 4.8 0 1 220.00 84.29
  L 225.48 83.01
  Z
  M 227.27 84.87
  L 225.99 85.11
  A 0.30 0.30 0.0 0 0 225.75 85.46
  L 225.79 85.63
  A 10.73 0.86 79.2 0 0 228.64 96.01
  L 228.82 95.97
  A 10.73 0.86 79.2 0 0 227.65 85.27
  L 227.62 85.11
  A 0.30 0.30 0.0 0 0 227.27 84.87
  Z
  M 231.38 84.98
  L 230.06 85.03
  A 0.43 0.43 0.0 0 0 229.65 85.47
  L 229.66 85.65
  A 10.65 0.94 88.0 0 0 230.97 96.26
  L 231.27 96.25
  A 10.65 0.94 88.0 0 0 231.83 85.58
  L 231.83 85.40
  A 0.43 0.43 0.0 0 0 231.38 84.98
  Z
  M 235.6044 91.8381
  A 3.45 0.55 88.1 0 0 236.0397 88.3718
  A 3.45 0.55 88.1 0 0 235.3756 84.9419
  A 3.45 0.55 88.1 0 0 234.9403 88.4082
  A 3.45 0.55 88.1 0 0 235.6044 91.8381
  Z
  M 224.2140 85.6817
  A 0.61 0.61 0.0 0 0 223.4761 85.2349
  L 222.9323 85.3684
  A 0.61 0.61 0.0 0 0 222.4854 86.1063
  L 224.8660 95.7983
  A 0.61 0.61 0.0 0 0 225.6039 96.2451
  L 226.1477 96.1116
  A 0.61 0.61 0.0 0 0 226.5946 95.3737
  L 224.2140 85.6817
  Z"
/>
<path d="
  M 128.41 127.00
  L 127.94 127.00
  Q 127.98 126.86 127.86 126.71
  Q 127.70 126.53 127.83 126.33
  Q 133.44 116.94 139.17 107.63
  Q 141.90 103.18 146.30 100.79
  A 0.42 0.41 -88.6 0 1 146.85 101.37
  L 137.24 117.13
  A 0.65 0.65 0.0 0 0 137.88 118.11
  Q 145.01 117.22 150.25 112.32
  A 0.58 0.57 -53.3 0 1 150.89 112.22
  Q 151.72 112.60 151.04 113.24
  Q 144.82 119.09 136.40 119.76
  Q 135.85 119.81 135.55 120.27
  L 131.69 126.39
  A 0.81 0.79 -69.3 0 1 130.91 126.75
  Q 129.48 126.55 128.41 127.00
  Z
  M 137.42 113.99
  Q 136.05 115.18 135.57 116.87
  Q 135.41 117.41 135.96 117.27
  Q 136.35 117.17 136.27 116.80
  Q 136.18 116.40 136.41 116.06
  L 137.65 114.22
  L 141.22 108.02
  Q 141.49 107.55 140.96 107.47
  Q 140.49 107.40 140.36 107.77
  C 139.60 109.94 138.15 111.67 137.42 113.99
  Z
  M 130.50 125.96
  L 135.16 118.47
  A 0.01 0.01 0.0 0 0 135.16 118.46
  L 135.05 118.40
  A 4.26 0.69 -58.1 0 0 132.22 121.65
  L 132.05 121.92
  A 4.26 0.69 -58.1 0 0 130.38 125.90
  L 130.48 125.96
  A 0.01 0.01 0.0 0 0 130.50 125.96
  Z"
/>
<path d="
  M 114.84 127.00
  L 113.71 127.00
  Q 113.34 126.35 113.57 126.07
  C 115.15 124.12 116.33 121.92 118.00 120.14
  Q 121.53 116.39 124.75 112.37
  C 126.32 110.43 127.13 108.16 128.35 105.91
  A 0.55 0.55 0.0 0 1 129.37 106.28
  C 127.97 112.94 123.14 115.53 119.30 121.00
  A 0.48 0.48 0.0 0 0 119.72 121.75
  Q 124.38 121.51 127.74 118.47
  A 0.73 0.73 0.0 0 1 128.95 119.11
  Q 128.86 119.78 128.05 120.32
  Q 125.82 121.80 123.31 122.68
  C 119.92 123.86 116.97 122.47 114.84 127.00
  Z"
/>
<path d="
  M 111.65 127.00
  L 110.19 127.00
  Q 109.34 117.99 111.00 109.23
  A 0.62 0.62 0.0 0 1 112.23 109.34
  C 112.24 110.95 111.37 112.69 111.45 114.26
  Q 111.74 120.65 111.65 127.00
  Z"
/>
<path d="
  M 221.05 127.00
  L 219.77 127.00
  Q 221.00 120.53 224.02 114.72
  Q 224.37 114.05 224.98 114.27
  A 0.58 0.58 0.0 0 1 225.30 115.08
  Q 222.40 120.74 221.05 127.00
  Z"
/>
<path d="
  M 375.00 122.33
  L 375.00 122.86
  L 370.01 127.00
  L 367.13 127.00
  Q 369.47 122.16 374.34 119.29
  Q 374.85 118.98 374.75 119.58
  Q 374.45 121.33 375.00 122.33
  Z
  M 371.54 123.03
  Q 369.57 125.31 372.03 123.56
  Q 372.10 123.51 373.44 122.72
  Q 374.09 122.34 374.19 121.82
  Q 374.33 121.12 373.70 121.45
  Q 372.26 122.20 371.54 123.03
  Z"
/>
<path d="
  M 0.00 119.62
  Q 1.58 122.65 4.31 125.71
  Q 4.58 126.01 4.22 126.71
  Q 4.09 126.75 3.94 126.75
  Q 3.79 126.76 3.69 126.65
  L 0.00 122.53
  L 0.00 119.62
  Z"
/>
<path d="
  M 270.87 127.00
  L 269.43 127.00
  Q 269.89 126.55 269.65 126.35
  Q 267.34 124.35 267.57 121.53
  A 0.50 0.49 -53.9 0 1 268.52 121.38
  L 270.87 127.00
  Z"
/>
<path d="
  M 104.65 127.00
  L 103.67 127.00
  Q 102.38 125.71 101.31 122.76
  A 0.74 0.74 0.0 0 1 102.60 122.06
  Q 104.15 124.10 104.65 127.00
  Z"
/>
<path d="
  M 98.95 127.00
  L 97.41 127.00
  Q 96.75 125.80 98.16 124.57
  A 0.53 0.52 -34.8 0 1 98.97 124.71
  Q 99.81 126.30 98.95 127.00
  Z"
/>
<path d="
  M 140.40 127.00
  L 139.63 127.00
  Q 138.77 125.59 141.13 125.51
  A 0.42 0.41 10.1 0 1 141.53 126.08
  Q 141.32 126.63 140.40 127.00
  Z"
/>
<path d="
  M 375.00 126.02
  L 375.00 127.00
  L 373.04 127.00
  Q 373.69 125.04 375.00 126.02
  Z"
/>
</g>
<g fill="#83917e" fill-opacity="0.612">
<path d="
  M 188.18 63.71
  Q 188.25 65.44 187.59 66.77
  L 187.47 66.10
  Q 187.41 65.77 187.07 65.75
  Q 186.90 65.75 186.74 65.75
  Q 186.64 65.75 186.63 65.66
  Q 186.51 63.58 188.18 63.71
  Z"
/>
<path d="
  M 61.07 91.75
  L 61.58 92.62
  Q 61.51 93.54 60.27 94.76
  Q 60.37 93.96 59.72 93.70
  Q 60.15 92.65 61.07 91.75
  Z"
/>
</g>
<g stroke-width="2.00" fill="none" stroke-linecap="butt">
<path stroke="#8ac05c" stroke-opacity="0.992" vector-effect="non-scaling-stroke" d="
  M 45.43 14.58
  L 45.76 17.13"
/>
<path stroke="#8ac05c" stroke-opacity="0.992" vector-effect="non-scaling-stroke" d="
  M 303.56 37.05
  C 301.68 44.75 309.17 47.39 315.37 46.09"
/>
<path stroke="#8ac05c" stroke-opacity="0.992" vector-effect="non-scaling-stroke" d="
  M 151.06 50.88
  Q 150.88 50.93 150.75 50.99
  Q 150.34 51.17 150.36 51.62
  C 150.49 54.38 153.62 64.88 157.51 64.49"
/>
<path stroke="#8ac05c" stroke-opacity="0.992" vector-effect="non-scaling-stroke" d="
  M 157.31 62.00
  L 151.96 51.94"
/>
<path stroke="#8ac05c" stroke-opacity="0.992" vector-effect="non-scaling-stroke" d="
  M 147.01 46.95
  Q 146.88 47.05 146.77 47.12
  Q 146.54 47.26 146.50 47.52
  Q 143.90 63.02 157.22 69.82
  Q 157.48 69.95 157.72 69.94
  Q 157.99 69.94 158.25 69.88"
/>
<path stroke="#8ac05c" stroke-opacity="0.992" vector-effect="non-scaling-stroke" d="
  M 158.30 67.55
  Q 149.37 61.14 148.78 49.71
  C 148.72 48.55 148.27 48.01 147.46 47.31"
/>
</g>
<g fill="#bbee92">
<circle cx="178.12" cy="15.40" r="6.60"/>
<path d="
  M 45.43 14.58
  L 45.76 17.13
  Q 44.80 20.88 41.69 21.31
  C 32.62 22.56 37.40 6.39 45.43 14.58
  Z"
/>
<path d="
  M 303.56 37.05
  C 301.68 44.75 309.17 47.39 315.37 46.09
  C 320.80 56.06 315.81 67.44 306.70 71.38
  C 298.31 75.00 288.74 72.45 283.78 64.71
  C 275.27 51.42 287.51 32.62 303.56 37.05
  Z"
/>
<path d="
  M 147.01 46.95
  L 147.46 47.31
  C 148.27 48.01 148.72 48.55 148.78 49.71
  Q 149.37 61.14 158.30 67.55
  Q 157.77 68.43 158.25 69.88
  Q 157.99 69.94 157.72 69.94
  Q 157.48 69.95 157.22 69.82
  Q 143.90 63.02 146.50 47.52
  Q 146.54 47.26 146.77 47.12
  Q 146.88 47.05 147.01 46.95
  Z"
/>
<path d="
  M 151.06 50.88
  Q 151.34 51.71 151.96 51.94
  L 157.31 62.00
  Q 157.08 63.28 157.51 64.49
  C 153.62 64.88 150.49 54.38 150.36 51.62
  Q 150.34 51.17 150.75 50.99
  Q 150.88 50.93 151.06 50.88
  Z"
/>
</g>
<path fill="#ebf9df" d="
  M 331.67 66.80
  Q 332.02 66.90 331.77 67.16
  C 329.33 69.66 318.71 76.32 317.56 69.26
  A 0.78 0.77 71.1 0 1 317.94 68.47
  Q 324.45 64.81 331.67 66.80
  Z"
/>
<g fill="#589225" fill-opacity="0.984">
<path d="
  M 235.46 24.80
  C 236.94 20.61 229.98 17.19 229.11 12.43
  C 228.34 8.17 232.47 3.89 235.94 2.12
  A 1.20 1.19 -50.0 0 1 236.83 2.04
  C 242.01 3.66 238.62 7.05 239.64 10.42
  A 1.36 1.36 0.0 0 0 242.00 10.89
  C 243.79 8.69 245.40 5.42 248.09 4.57
  C 254.76 2.47 261.61 10.32 253.57 15.89
  C 251.08 17.61 249.90 18.76 249.34 21.51
  A 1.30 1.30 0.0 0 0 250.71 23.07
  C 253.42 22.87 265.51 20.79 263.06 27.26
  C 261.36 31.75 251.39 30.40 247.82 33.16
  A 1.45 1.39 79.0 0 0 247.31 33.95
  Q 246.18 38.61 250.58 40.63
  Q 252.67 41.60 253.80 39.59
  C 255.69 36.23 259.69 33.15 263.26 35.84
  Q 263.65 36.14 263.75 36.61
  C 265.67 45.24 258.82 44.65 253.64 47.42
  A 0.58 0.58 0.0 0 0 253.48 48.31
  Q 254.93 49.98 257.06 50.65
  A 1.41 1.35 -9.3 0 1 257.73 51.11
  C 262.43 57.03 251.73 58.01 248.75 57.54
  A 1.00 0.99 -82.2 0 0 247.61 58.41
  Q 246.61 67.65 243.12 76.66
  Q 242.90 77.25 242.70 77.26
  A 0.94 0.81 -79.1 0 1 241.97 75.99
  Q 245.15 67.66 246.34 58.82
  Q 246.43 58.20 245.84 58.41
  Q 236.58 61.67 229.67 55.95
  C 226.97 53.72 225.49 50.95 228.27 48.03
  C 231.00 45.14 233.62 49.73 235.01 51.49
  Q 235.90 52.62 238.63 52.70
  Q 239.11 52.72 239.44 52.36
  C 243.75 47.74 235.84 44.72 232.82 44.17
  C 227.03 43.11 222.21 40.76 223.41 33.78
  A 1.39 1.39 0.0 0 1 225.70 32.98
  C 226.99 34.12 231.61 39.84 233.50 36.78
  C 234.68 34.86 231.38 31.63 230.22 30.28
  C 228.25 28.00 228.35 23.68 231.98 23.19
  A 0.84 0.82 -27.4 0 1 232.61 23.38
  L 234.62 25.03
  A 0.54 0.53 29.4 0 0 235.46 24.80
  Z
  M 243.05 16.69
  Q 243.34 16.55 243.59 16.55
  A 0.41 0.41 0.0 0 1 243.95 17.17
  C 237.91 27.20 241.82 35.16 246.18 44.81
  Q 247.42 47.57 247.99 55.44
  A 0.81 0.80 -88.7 0 0 248.69 56.18
  Q 252.56 56.67 256.11 55.42
  A 1.81 1.80 -40.0 0 0 256.40 52.14
  C 255.14 51.44 253.42 50.81 252.65 49.54
  C 248.87 43.27 264.04 46.75 262.48 38.04
  Q 262.27 36.88 261.41 36.38
  C 257.18 33.88 256.19 42.44 251.46 42.01
  C 243.52 41.28 243.71 31.31 251.84 30.09
  C 253.50 29.84 262.03 29.47 262.01 25.67
  Q 262.01 25.20 261.64 24.91
  C 260.37 23.90 258.91 24.28 257.47 24.28
  Q 253.66 24.28 249.68 24.29
  A 1.14 1.13 72.4 0 1 248.75 23.80
  C 244.15 17.33 260.69 13.06 254.42 7.05
  C 247.02 -0.03 245.21 14.44 239.35 11.78
  A 1.17 1.15 4.2 0 1 238.72 11.06
  Q 238.03 8.76 238.59 6.39
  A 1.82 1.74 47.1 0 0 238.60 5.62
  Q 237.86 2.20 235.20 3.93
  C 220.99 13.20 242.25 19.59 235.91 26.07
  A 1.51 1.50 -47.1 0 1 233.84 26.15
  L 232.09 24.60
  Q 231.69 24.25 231.30 24.60
  C 226.90 28.59 236.05 31.62 235.05 36.52
  C 233.84 42.42 227.97 37.21 226.35 35.14
  A 0.71 0.71 0.0 0 0 225.09 35.52
  C 224.31 46.03 239.89 40.06 241.85 48.55
  C 242.61 51.82 240.09 54.11 236.98 53.88
  C 234.50 53.70 232.91 51.39 231.74 49.41
  A 1.69 1.69 0.0 0 0 229.01 49.16
  C 227.78 50.57 228.03 52.32 229.16 53.74
  C 232.84 58.39 240.67 59.43 245.67 56.78
  A 0.98 0.97 -12.8 0 0 246.18 55.98
  C 246.97 40.09 233.37 32.79 242.67 17.06
  Q 242.82 16.79 243.05 16.69
  Z"
/>
<path d="
  M 45.76 17.13
  L 45.43 14.58
  L 54.71 20.64
  Q 55.17 20.94 55.21 20.40
  Q 55.45 17.00 57.12 14.03
  A 0.66 0.66 0.0 0 1 58.27 14.03
  Q 60.71 18.49 59.07 23.29
  A 0.53 0.53 0.0 0 0 59.74 23.96
  C 72.52 19.44 76.95 23.86 80.39 35.64
  C 82.32 42.27 83.83 55.89 75.41 58.13
  Q 72.20 58.99 66.67 57.71
  C 55.52 55.13 35.70 43.30 49.84 30.37
  A 0.51 0.51 0.0 0 0 49.54 29.49
  Q 44.14 29.06 41.01 24.74
  A 0.51 0.51 0.0 0 1 41.26 23.96
  L 47.50 21.85
  Q 47.95 21.69 47.87 21.22
  Q 47.46 18.83 45.76 17.13
  Z
  M 57.3255 23.8875
  A 3.67 0.84 92.1 0 0 58.2994 20.2508
  A 3.67 0.84 92.1 0 0 57.5945 16.5525
  A 3.67 0.84 92.1 0 0 56.6206 20.1892
  A 3.67 0.84 92.1 0 0 57.3255 23.8875
  Z
  M 52.05 22.72
  A 0.28 0.28 0.0 0 1 52.05 22.32
  L 52.30 22.08
  A 0.49 0.48 -43.1 0 1 53.01 22.10
  L 54.05 23.29
  A 0.46 0.46 0.0 0 0 54.75 22.70
  Q 52.29 19.71 48.78 18.06
  Q 48.13 17.75 48.26 18.46
  Q 49.24 23.58 53.73 25.78
  A 0.52 0.52 0.0 0 0 54.32 24.95
  L 52.05 22.72
  Z
  M 50.21 25.03
  C 48.87 22.34 45.28 23.69 43.23 24.57
  A 0.52 0.52 0.0 0 0 43.11 25.45
  Q 47.41 29.03 52.96 27.73
  A 0.45 0.44 -35.6 0 0 53.10 26.92
  L 50.41 25.25
  A 0.55 0.53 -88.6 0 1 50.21 25.03
  Z
  M 64.19 55.56
  C 69.01 57.34 78.29 59.18 79.75 51.98
  C 81.34 44.13 79.65 21.12 66.25 23.52
  C 60.35 24.57 57.40 25.98 52.76 29.54
  C 36.99 41.65 53.46 51.61 64.19 55.56
  Z"
/>
<path d="
  M 303.12 26.58
  C 302.14 23.83 305.12 21.83 307.54 23.36
  Q 312.50 26.50 313.05 32.88
  Q 313.09 33.35 312.62 33.35
  Q 305.54 33.39 303.12 26.58
  Z
  M 308.34 28.53
  Q 309.47 29.12 310.23 30.16
  Q 310.37 30.34 310.56 30.23
  L 310.80 30.09
  Q 311.06 29.93 310.95 29.65
  C 310.33 27.97 306.34 21.64 304.26 25.28
  A 1.30 1.30 0.0 0 0 304.36 26.73
  L 307.81 31.16
  A 0.60 0.60 0.0 0 0 308.78 30.44
  L 307.83 29.12
  A 0.40 0.40 0.0 0 1 308.34 28.53
  Z"
/>
<path d="
  M 323.63 40.79
  C 317.01 42.53 312.19 28.93 319.80 26.58
  Q 320.27 26.43 320.70 26.68
  C 325.30 29.30 325.22 34.90 324.68 39.58
  A 1.44 1.41 86.5 0 1 323.63 40.79
  Z
  M 321.51 33.49
  L 322.88 37.44
  A 0.43 0.43 0.0 0 0 323.71 37.36
  Q 324.42 32.20 321.12 28.34
  A 1.11 1.09 -23.8 0 0 320.16 27.98
  C 314.53 28.67 318.40 36.94 320.39 39.45
  A 0.87 0.87 0.0 0 0 321.89 38.64
  Q 321.33 36.92 320.38 34.66
  Q 320.09 33.96 320.26 33.48
  A 0.66 0.66 0.0 0 1 321.51 33.49
  Z"
/>
<path d="
  M 303.56 37.05
  C 308.79 36.50 312.71 39.16 317.14 42.50
  A 0.61 0.61 0.0 0 1 317.27 43.33
  L 315.37 46.09
  C 309.17 47.39 301.68 44.75 303.56 37.05
  Z
  M 310.93 41.21
  Q 311.62 41.81 312.69 41.97
  Q 313.29 42.07 312.95 41.56
  Q 311.72 39.71 310.72 40.75
  Q 308.77 37.90 305.36 38.64
  A 0.74 0.72 86.9 0 0 304.79 39.29
  C 304.35 44.44 309.41 45.60 313.46 45.23
  Q 314.04 45.17 314.30 44.88
  Q 314.64 44.48 314.50 43.91
  A 0.77 0.77 0.0 0 0 313.76 43.30
  Q 307.81 43.20 310.93 41.21
  Z"
/>
<path d="
  M 364.08 49.94
  A 0.05 0.05 0.0 0 1 364.02 49.99
  L 364.02 49.99
  A 3.64 1.75 89.6 0 1 362.25 46.37
  L 362.25 46.15
  A 3.64 1.75 89.6 0 1 363.97 42.49
  L 363.97 42.49
  A 0.05 0.05 0.0 0 1 364.02 42.55
  L 364.08 49.94
  Z"
/>
<path d="
  M 355.15 53.49
  C 353.88 52.20 351.23 48.61 351.85 46.75
  A 0.49 0.48 -43.1 0 1 352.78 46.78
  Q 353.58 49.86 355.84 52.42
  Q 356.38 53.03 355.82 53.52
  Q 355.48 53.82 355.15 53.49
  Z"
/>
<path d="
  M 344.01 55.02
  Q 345.97 57.77 349.27 58.71
  A 0.55 0.54 -31.4 0 1 349.01 59.77
  Q 345.08 59.01 343.19 55.53
  A 0.48 0.48 0.0 0 1 344.01 55.02
  Z"
/>
<ellipse cx="0.00" cy="0.00" transform="translate(345.28,67.12) rotate(16.0)" rx="3.02" ry="0.68"/>
<ellipse cx="0.00" cy="0.00" transform="translate(352.55,82.50) rotate(65.1)" rx="3.29" ry="0.65"/>
<path d="
  M 320.40 108.43
  A 1.24 1.24 0.0 0 0 320.27 110.51
  Q 321.75 111.59 322.99 112.92
  C 325.46 115.59 323.54 118.05 320.31 117.57
  C 297.21 114.15 309.37 77.07 332.72 84.74
  C 337.66 86.36 344.46 93.96 341.15 99.91
  C 340.22 101.59 338.29 101.94 336.71 100.97
  C 335.18 100.03 335.94 98.55 334.79 97.65
  Q 333.88 96.95 332.93 97.86
  A 0.67 0.67 0.0 0 0 332.77 98.61
  C 334.87 103.66 338.83 104.82 341.64 108.46
  A 1.57 1.57 0.0 0 1 341.95 109.56
  C 341.48 114.07 335.40 117.28 331.80 119.45
  A 0.96 0.96 0.0 0 1 330.36 118.79
  C 329.57 114.26 326.87 104.86 320.40 108.43
  Z
  M 317.84 105.75
  A 1.48 1.48 0.0 0 1 316.81 103.21
  Q 318.63 101.41 321.20 100.92
  A 0.46 0.46 0.0 0 0 321.23 100.02
  Q 319.11 99.46 318.99 97.15
  A 1.11 1.09 67.7 0 1 319.35 96.27
  Q 321.32 94.42 323.75 95.83
  A 0.37 0.37 0.0 0 0 324.28 95.37
  Q 323.64 93.76 324.72 92.50
  A 0.90 0.90 0.0 0 1 325.94 92.36
  L 327.70 93.67
  A 0.47 0.47 0.0 0 0 328.45 93.34
  Q 328.53 92.45 329.57 92.05
  A 1.03 1.03 0.0 0 1 330.96 92.98
  L 331.06 96.30
  Q 331.09 97.30 331.70 96.50
  C 334.50 92.85 336.31 97.44 337.18 99.38
  A 0.65 0.65 0.0 0 0 337.97 99.73
  Q 341.01 98.73 340.29 95.63
  A 1.26 1.25 -14.8 0 0 338.71 94.71
  Q 337.83 94.96 337.30 94.44
  A 0.50 0.50 0.0 0 1 337.53 93.59
  L 339.00 93.25
  Q 339.69 93.09 339.37 92.45
  L 338.90 91.52
  A 0.61 0.61 0.0 0 0 338.11 91.23
  L 336.84 91.78
  A 0.50 0.50 0.0 0 1 336.22 91.04
  L 336.93 89.96
  A 0.71 0.70 -55.6 0 0 336.76 89.00
  L 333.50 86.70
  A 0.65 0.64 -72.4 0 0 332.48 87.23
  Q 332.48 88.69 331.08 89.05
  A 0.53 0.52 2.4 0 1 330.45 88.37
  L 331.15 86.37
  A 0.70 0.70 0.0 0 0 330.56 85.44
  L 326.90 85.07
  A 0.58 0.58 0.0 0 0 326.31 85.87
  Q 326.91 87.32 326.06 88.49
  A 0.57 0.56 60.7 0 1 325.04 88.20
  L 324.83 85.65
  Q 324.78 84.99 324.14 85.21
  L 319.97 86.68
  A 0.78 0.78 0.0 0 0 319.45 87.54
  L 319.68 89.09
  A 0.38 0.37 -77.3 0 1 319.10 89.46
  L 317.73 88.53
  A 0.60 0.58 -48.8 0 0 317.00 88.59
  L 313.94 91.37
  A 0.48 0.48 0.0 0 0 314.08 92.17
  Q 315.02 92.57 315.00 93.63
  Q 314.99 94.65 314.14 94.08
  L 313.30 93.52
  Q 312.85 93.22 312.41 93.54
  Q 311.40 94.31 311.26 95.54
  Q 311.22 95.94 311.54 96.20
  L 313.18 97.54
  A 0.53 0.53 0.0 0 1 312.96 98.47
  Q 311.69 98.73 311.08 97.66
  A 0.59 0.59 0.0 0 0 310.00 97.79
  L 308.96 101.52
  A 0.45 0.45 0.0 0 0 309.58 102.04
  Q 310.91 101.41 311.92 102.28
  A 0.67 0.67 0.0 0 1 311.42 103.46
  L 309.66 103.31
  A 0.66 0.65 85.5 0 0 308.97 104.12
  L 309.69 106.97
  Q 309.84 107.58 310.45 107.48
  L 312.26 107.18
  A 0.51 0.51 0.0 0 1 312.58 108.14
  L 311.06 108.97
  A 0.59 0.58 59.4 0 0 310.85 109.81
  L 312.19 111.85
  A 0.70 0.70 0.0 0 0 313.15 112.05
  L 314.94 110.91
  A 0.42 0.42 0.0 0 1 315.51 111.50
  L 314.42 113.12
  Q 314.19 113.47 314.47 113.80
  Q 317.64 117.45 321.88 115.27
  A 0.86 0.85 -38.6 0 0 322.04 113.85
  C 320.70 112.75 318.77 111.47 318.67 109.65
  C 318.48 106.07 324.05 105.46 326.20 107.48
  Q 330.32 111.37 331.30 117.14
  A 0.45 0.44 84.0 0 0 331.75 117.51
  Q 331.90 117.50 332.04 117.50
  Q 332.67 117.50 332.56 116.89
  C 331.78 112.50 328.55 105.72 323.58 104.66
  C 321.48 104.21 319.87 105.77 317.84 105.75
  Z
  M 327.16 96.04
  Q 326.95 95.20 326.05 95.22
  A 0.56 0.56 0.0 0 0 325.53 95.95
  L 326.00 97.36
  A 0.51 0.51 0.0 0 1 325.31 97.99
  L 323.34 97.12
  A 0.99 0.98 11.1 0 0 321.96 98.04
  Q 322.00 99.57 323.34 100.40
  A 0.93 0.92 53.9 0 1 323.08 102.08
  L 318.74 103.17
  Q 318.50 103.23 318.50 103.47
  Q 318.50 103.61 318.50 103.76
  A 0.19 0.18 -5.2 0 0 318.72 103.94
  L 323.52 103.06
  A 1.05 1.00 -35.6 0 1 324.16 103.15
  Q 331.95 107.08 333.62 115.64
  A 0.78 0.78 0.0 0 0 334.85 116.11
  L 338.44 113.43
  Q 338.97 113.04 338.52 112.56
  C 334.01 107.74 328.41 102.18 329.58 95.94
  Q 329.62 95.68 329.41 95.52
  L 328.98 95.20
  A 0.32 0.32 0.0 0 0 328.48 95.51
  Q 328.65 96.54 327.72 96.50
  Q 327.27 96.49 327.16 96.04
  Z
  M 331.67 99.01
  A 1.01 0.55 86.8 0 0 330.98 100.47
  Q 334.17 106.26 338.34 110.64
  Q 338.82 111.15 339.22 111.22
  Q 339.96 111.34 340.28 110.35
  A 2.22 2.21 26.3 0 0 339.42 107.83
  Q 335.36 105.07 332.48 101.12
  A 1.22 1.18 -66.5 0 1 332.25 100.51
  Q 332.19 99.75 331.67 99.01
  Z"
/>
<path d="
  M 228.09 101.15
  A 0.19 0.19 0.0 0 1 228.32 101.00
  L 228.39 101.01
  A 3.04 1.28 -78.7 0 1 229.04 104.24
  L 229.01 104.44
  A 3.04 1.28 -78.7 0 1 227.15 107.17
  L 227.09 107.16
  A 0.19 0.19 0.0 0 1 226.94 106.93
  L 228.09 101.15
  Z"
/>
<ellipse cx="0.00" cy="0.00" transform="translate(215.91,106.18) rotate(131.6)" rx="2.78" ry="0.68"/>
<path d="
  M 231.14 110.32
  A 0.19 0.19 0.0 0 1 231.35 110.49
  L 232.10 120.81
  A 0.38 0.28 -4.2 0 1 231.75 121.12
  L 231.11 121.17
  A 0.38 0.28 -4.2 0 1 230.71 120.92
  L 229.95 110.60
  A 0.19 0.19 0.0 0 1 230.13 110.39
  L 231.14 110.32
  Z"
/>
<rect x="-0.64" y="-7.17" transform="translate(209.75,119.78) rotate(15.3)" width="1.28" height="14.34" rx="0.48"/>
<path d="
  M 204.94 125.30
  A 0.13 0.13 0.0 0 1 204.79 125.41
  L 204.72 125.40
  A 1.36 1.16 -80.9 0 1 203.79 123.87
  L 204.25 121.03
  A 1.36 1.16 -80.9 0 1 205.61 119.87
  L 205.68 119.88
  A 0.13 0.13 0.0 0 1 205.78 120.03
  L 204.94 125.30
  Z"
/>
</g>
<g fill="#83917e" fill-opacity="0.612">
<path d="
  M 367.20 102.23
  Q 363.18 101.94 361.92 98.00
  Q 361.74 97.45 362.25 97.71
  Q 365.14 99.16 367.55 101.44
  Q 368.49 102.33 367.20 102.23
  Z"
/>
<path d="
  M 137.42 113.99
  Q 137.59 114.26 137.65 114.22
  L 136.41 116.06
  Q 136.18 116.40 136.27 116.80
  Q 136.35 117.17 135.96 117.27
  Q 135.41 117.41 135.57 116.87
  Q 136.05 115.18 137.42 113.99
  Z"
/>
</g>
<path stroke="#8ac05c" stroke-opacity="0.992" stroke-width="2.00" fill="none" stroke-linecap="butt" vector-effect="non-scaling-stroke" d="
  M 310.72 40.75
  Q 308.77 37.90 305.36 38.64
  A 0.74 0.72 86.9 0 0 304.79 39.29
  C 304.35 44.44 309.41 45.60 313.46 45.23
  Q 314.04 45.17 314.30 44.88
  Q 314.64 44.48 314.50 43.91
  A 0.77 0.77 0.0 0 0 313.76 43.30
  Q 307.81 43.20 310.93 41.21"
/>
<path fill="#bbee92" d="
  M 310.72 40.75
  Q 310.83 40.98 310.93 41.21
  Q 307.81 43.20 313.76 43.30
  A 0.77 0.77 0.0 0 1 314.50 43.91
  Q 314.64 44.48 314.30 44.88
  Q 314.04 45.17 313.46 45.23
  C 309.41 45.60 304.35 44.44 304.79 39.29
  A 0.74 0.72 86.9 0 1 305.36 38.64
  Q 308.77 37.90 310.72 40.75
  Z"
/>
<g fill="#589225" fill-opacity="0.984">
<path d="
  M 66.96 25.95
  Q 68.74 26.83 68.78 28.81
  Q 68.80 30.02 68.09 29.05
  L 66.35 26.68
  A 0.49 0.49 0.0 0 1 66.96 25.95
  Z"
/>
<ellipse cx="0.00" cy="0.00" transform="translate(73.75,28.66) rotate(53.2)" rx="1.80" ry="0.67"/>
<path d="
  M 56.76 31.22
  Q 58.39 32.20 58.96 33.92
  A 0.60 0.60 0.0 0 1 57.92 34.47
  L 56.06 31.99
  A 0.53 0.53 0.0 0 1 56.76 31.22
  Z"
/>
<ellipse cx="0.00" cy="0.00" transform="translate(65.23,35.40) rotate(43.4)" rx="1.65" ry="0.75"/>
<ellipse cx="0.00" cy="0.00" transform="translate(73.55,35.91) rotate(58.1)" rx="2.01" ry="0.75"/>
<path d="
  M 50.56 38.19
  Q 51.40 38.51 51.17 39.41
  A 0.60 0.60 0.0 0 1 50.12 39.64
  L 48.38 37.46
  A 0.46 0.46 0.0 0 1 48.94 36.76
  Q 49.97 37.27 50.56 38.19
  Z"
/>
<ellipse cx="0.00" cy="0.00" transform="translate(57.45,40.02) rotate(43.4)" rx="1.67" ry="0.73"/>
<path d="
  M 73.76 44.09
  Q 72.34 43.33 72.21 41.79
  Q 72.13 40.90 72.87 41.40
  Q 74.34 42.40 74.49 43.58
  Q 74.62 44.55 73.76 44.09
  Z"
/>
<ellipse cx="0.00" cy="0.00" transform="translate(65.55,42.52) rotate(32.3)" rx="1.44" ry="0.71"/>
<ellipse cx="0.00" cy="0.00" transform="translate(51.30,45.28) rotate(38.8)" rx="1.51" ry="0.76"/>
<path d="
  M 77.62 45.99
  L 77.04 45.42
  A 0.69 0.69 0.0 0 1 77.87 44.33
  Q 78.68 44.79 78.75 45.80
  A 0.62 0.62 0.0 0 1 78.32 46.44
  Q 77.78 46.62 77.75 46.29
  Q 77.74 46.11 77.62 45.99
  Z"
/>
<rect x="-2.36" y="-0.62" transform="translate(58.38,47.65) rotate(41.8)" width="4.72" height="1.24" rx="0.46"/>
<ellipse cx="0.00" cy="0.00" transform="translate(67.33,48.82) rotate(40.4)" rx="1.82" ry="0.79"/>
<ellipse cx="0.00" cy="0.00" transform="translate(74.62,51.68) rotate(50.7)" rx="1.69" ry="0.70"/>
<ellipse cx="0.00" cy="0.00" transform="translate(70.11,54.54) rotate(40.8)" rx="1.69" ry="0.85"/>
</g>
</svg>
